<svg width="38" height="38" viewBox="0 0 38 38" fill="none" xmlns="http://www.w3.org/2000/svg">
<g clip-path="url(#clip0_4_998)">
<path d="M38 19C38 8.50633 29.4937 0 19 0C8.50633 0 0 8.50633 0 19C0 27.911 6.1345 35.387 14.4101 37.4408V24.806H10.4922V19H14.4101V16.4983C14.4101 10.0308 17.3367 7.03336 23.6854 7.03336C24.8896 7.03336 26.9666 7.27002 27.8161 7.50593V12.7692C27.3675 12.7222 26.5888 12.6983 25.6213 12.6983C22.5059 12.6983 21.3016 13.8786 21.3016 16.947V19H27.5078L26.4417 24.806H21.3016V37.8611C30.7098 36.7249 38 28.7143 38 19Z" fill="#0866FF"/>
<path d="M26.4417 24.8059L27.5078 18.9998H21.3016V16.9468C21.3016 13.8784 22.5059 12.6981 25.6213 12.6981C26.5888 12.6981 27.3675 12.722 27.8161 12.769V7.50578C26.9666 7.26986 24.8896 7.0332 23.6854 7.0332C17.3367 7.0332 14.4101 10.0314 14.4101 16.4981V18.9998H10.4922V24.8059H14.4101V37.4407C15.8801 37.805 17.4173 37.9998 19 37.9998C19.7794 37.9998 20.5469 37.9521 21.3016 37.861V24.8059H26.4417Z" fill="white"/>
</g>
<defs>
<clipPath id="clip0_4_998">
<rect width="38" height="38" fill="white"/>
</clipPath>
</defs>
</svg>
