<svg width="38" height="38" viewBox="0 0 38 38" fill="none" xmlns="http://www.w3.org/2000/svg">
<path d="M18.9562 37.9998C8.4856 37.9998 0 29.5142 0 19.0436C0 14.0172 1.99661 9.18824 5.54872 5.63613C12.9083 -1.81634 24.9112 -1.88599 32.3637 5.47361C39.8161 12.8332 39.8858 24.8361 32.5262 32.2886C32.4682 32.3466 32.4217 32.393 32.3637 32.4511C28.8116 36.0148 23.9826 38.023 18.9562 37.9998ZM18.608 29.4213C18.9794 29.4213 19.3393 29.4213 19.7107 29.4329C20.0822 29.4446 20.442 29.4446 20.8019 29.4446C24.2263 29.4446 27.4186 29.166 28.7535 25.7299C29.2875 23.7914 29.4848 21.7831 29.3223 19.7865C29.3223 19.4383 29.3223 19.09 29.3223 18.7186C29.3223 18.3123 29.3223 17.9292 29.3223 17.5578C29.3455 13.994 29.3572 11.6376 27.5231 9.80347C25.8515 8.13189 23.6343 7.99259 20.9064 7.99259C20.5581 7.99259 20.1983 7.99259 19.8268 7.99259C19.4321 7.99259 19.0259 7.99259 18.608 7.99259C18.2481 7.99259 17.8999 7.99259 17.5516 7.99259C17.2034 7.99259 16.8551 7.99259 16.5185 7.99259C12.8967 7.99259 9.79733 8.27119 8.46238 11.6956C7.92841 13.6342 7.73106 15.654 7.89358 17.6622C7.89358 17.9989 7.89358 18.3587 7.89358 18.7186C7.89358 19.0088 7.89358 19.299 7.89358 19.5776V19.6008C7.74267 21.6671 7.94001 23.7333 8.46238 25.7299C9.79733 29.1544 12.9083 29.4329 16.5301 29.4329C16.8667 29.4329 17.215 29.4329 17.5632 29.4329C17.8999 29.4329 18.2597 29.4213 18.608 29.4213ZM21.0457 27.506C20.6742 27.506 20.2911 27.506 19.8849 27.4944C19.4786 27.4828 19.0491 27.4828 18.6196 27.4828C10.0875 27.4828 9.84376 27.239 9.84376 18.6954C9.84376 14.3075 10.0179 12.1832 11.0742 11.0688C12.1306 9.95438 13.9531 9.91955 17.6677 9.91955H17.9115C18.4338 9.91955 18.9214 9.91955 19.3857 9.90795C19.9081 9.90795 20.4072 9.89634 20.8716 9.89634C23.5879 9.89634 25.1434 10.0821 26.1185 11.092C27.5695 12.601 27.6624 15.9906 27.3489 23.0252C27.14 27.181 24.4933 27.506 21.0457 27.506ZM18.608 13.2047C15.5666 13.2047 13.1057 15.6656 13.1057 18.707C13.1057 21.7483 15.5666 24.2093 18.608 24.2093C21.6493 24.2093 24.1102 21.7483 24.1102 18.707C24.1102 15.6772 21.6493 13.2047 18.608 13.2047ZM24.3308 11.7072C23.6227 11.7072 23.0423 12.2876 23.0423 12.9957C23.0423 13.7038 23.6227 14.2842 24.3308 14.2842C25.0389 14.2842 25.6193 13.7038 25.6193 12.9957C25.6193 12.276 25.0389 11.7072 24.3308 11.7072ZM18.608 22.2823C16.7274 22.3519 15.1371 20.8893 15.0675 19.0088C15.0675 18.9043 15.0675 18.8114 15.0675 18.707C15.0558 17.8131 15.3693 16.9309 15.9497 16.2576C16.623 15.5147 17.598 15.1084 18.608 15.1432C20.4885 15.0736 22.0788 16.5362 22.1485 18.4168C22.1485 18.5212 22.1485 18.6141 22.1485 18.7186C22.1601 19.6124 21.8466 20.4946 21.2662 21.1679C20.593 21.9108 19.6179 22.3171 18.608 22.2823Z" fill="url(#paint0_linear_4_1009)"/>
<defs>
<linearGradient id="paint0_linear_4_1009" x1="31.7502" y1="2.06371" x2="5.79491" y2="36.5311" gradientUnits="userSpaceOnUse">
<stop stop-color="#7D4292"/>
<stop offset="0.551" stop-color="#EC663A"/>
<stop offset="1" stop-color="#FBBD3F"/>
</linearGradient>
</defs>
</svg>
